<?xml version="1.0" encoding="utf-8"?>
<!-- Generator: Adobe Illustrator 23.1.0, SVG Export Plug-In . SVG Version: 6.00 Build 0)  -->
<svg version="1.1" id="Слой_1" xmlns="http://www.w3.org/2000/svg" xmlns:xlink="http://www.w3.org/1999/xlink" x="0px" y="0px"
	 viewBox="0 0 749.8 745.2" style="enable-background:new 0 0 749.8 745.2;" xml:space="preserve">
<style type="text/css">
	.st0{fill:#6E7074;}
</style>
<g id="SVGRepo_bgCarrier">
</g>
<g id="SVGRepo_tracerCarrier">
</g>
<g id="SVGRepo_iconCarrier">
	<title>facebook</title>
	<path class="st0" d="M749.8,374.9C749.8,167.8,582,0,374.9,0S0,167.9,0,374.9c0,186.4,136,341,314.1,370l2.2,0.3V483.2h-95.2V374.8
		h95.2v-82.6c-0.5-4.2-0.7-9-0.7-13.9c0-73.1,59.3-132.3,132.3-132.3c3.5,0,7,0.1,10.5,0.4l-0.5,0c30,0.4,59,3.1,87.3,7.8l-3.3-0.5
		V246h-47.3c-2.2-0.3-4.6-0.5-7.1-0.5c-29.9,0-54.2,24.3-54.2,54.2c0,1.7,0.1,3.4,0.2,5l0-0.2v70.3h104l-16.6,108.4h-87.4v261.9
		C613.8,715.8,749.8,561.2,749.8,374.9L749.8,374.9L749.8,374.9z"/>
</g>
</svg>
