<?xml version="1.0" encoding="utf-8"?>
<!-- Generator: Adobe Illustrator 23.1.0, SVG Export Plug-In . SVG Version: 6.00 Build 0)  -->
<svg version="1.1" id="Слой_1" xmlns="http://www.w3.org/2000/svg" xmlns:xlink="http://www.w3.org/1999/xlink" x="0px" y="0px"
	 viewBox="0 0 24 24" style="enable-background:new 0 0 24 24;" xml:space="preserve">
<style type="text/css">
	.st0{fill:#6E7074;}
</style>
<path class="st0" d="M3,19c-0.5,0-1-0.2-1.4-0.6S1,17.5,1,17V7c0-0.6,0.2-1,0.6-1.4C2,5.2,2.5,5,3,5h10c0.6,0,1,0.2,1.4,0.6
	C14.8,6,15,6.4,15,7v10c0,0.6-0.2,1-0.6,1.4S13.6,19,13,19H3z M18,11c-0.3,0-0.5-0.1-0.7-0.3C17.1,10.5,17,10.3,17,10V6
	c0-0.3,0.1-0.5,0.3-0.7S17.7,5,18,5h4c0.3,0,0.5,0.1,0.7,0.3C22.9,5.5,23,5.7,23,6v4c0,0.3-0.1,0.5-0.3,0.7C22.5,10.9,22.3,11,22,11
	H18z M19,9h2V7h-2V9z M3,17h10V7H3V17z M4,15h8l-2.6-3.5L7.5,14l-1.4-1.8L4,15z M18,19c-0.3,0-0.5-0.1-0.7-0.3
	C17.1,18.5,17,18.3,17,18v-4c0-0.3,0.1-0.5,0.3-0.7S17.7,13,18,13h4c0.3,0,0.5,0.1,0.7,0.3c0.2,0.2,0.3,0.4,0.3,0.7v4
	c0,0.3-0.1,0.5-0.3,0.7C22.5,18.9,22.3,19,22,19H18z M19,17h2v-2h-2V17z M3,17V7V17z M19,9V7V9z M19,17v-2V17z"/>
</svg>
